<svg width="25" height="24" viewBox="0 0 25 24" fill="none" xmlns="http://www.w3.org/2000/svg">
<circle opacity="0.6" cx="12.0195" cy="12" r="12" fill="#57535F"/>
<mask id="mask0_7188_2276" style="mask-type:alpha" maskUnits="userSpaceOnUse" x="8" y="3" width="8" height="11">
<path d="M8.51953 7C8.51953 5.067 10.0865 3.5 12.0195 3.5C13.9525 3.5 15.5195 5.067 15.5195 7V10C15.5195 11.933 13.9525 13.5 12.0195 13.5C10.0865 13.5 8.51953 11.933 8.51953 10V7Z" fill="#D9D9D9"/>
</mask>
<g mask="url(#mask0_7188_2276)">
<path d="M9.01953 9H15.0195V10C15.0195 11.6569 13.6764 13 12.0195 13C10.3627 13 9.01953 11.6569 9.01953 10V9Z" fill="white"/>
</g>
<path d="M8.765 21.0023V19.6526H11.265L11.2591 17.3531C9.65924 17.2507 8.13702 16.626 6.92662 15.575C5.71623 14.524 4.88441 13.1048 4.55895 11.5353C4.41634 10.9034 4.38291 10.2519 4.45934 9.60868H5.80895V10.4084C5.88448 11.963 6.57011 13.4252 7.71666 14.4779C8.86321 15.5307 10.3783 16.0891 11.9339 16.0323C12.7063 16.0686 13.4786 15.9517 14.2054 15.6881C14.9323 15.4246 15.5993 15.0197 16.1688 14.4968C16.7383 13.9739 17.1989 13.3433 17.5233 12.6416C17.8477 11.9399 18.0296 11.1809 18.0589 10.4084V9.60868H19.409C19.4977 10.4209 19.4301 11.2426 19.2093 12.0292C18.8042 13.4954 17.9493 14.7978 16.7655 15.7533C15.5816 16.7088 14.1282 17.2693 12.6092 17.3561L12.6151 19.6556H15.2152V21.0053L8.765 21.0023ZM7.85924 10.3605C7.85924 5.3995 7.8793 6.34835 7.8983 6.17738C8.07143 5.24554 8.57879 4.40905 9.32555 3.8252C10.0723 3.24136 11.0067 2.95036 11.953 3.00701C12.8994 2.95011 13.8344 3.24097 14.5814 3.82484C15.3284 4.40871 15.836 5.24535 16.0091 6.17738C16.0381 6.42633 16.0091 5.4005 16.0091 10.3605C16.0091 12.4141 14.0759 13.8788 11.9339 13.8788C9.79195 13.8788 7.85631 12.4031 7.85631 10.3605H7.85924ZM9.23912 6.32835C9.22212 6.48132 9.20934 5.92839 9.20934 10.3605C9.28938 11.0064 9.61904 11.5952 10.1283 12.0006C10.6375 12.4061 11.2854 12.5958 11.933 12.5291C12.5808 12.5968 13.2295 12.4076 13.7391 12.002C14.2488 11.5964 14.5788 11.0069 14.6581 10.3605C14.6581 5.8784 14.6833 6.48132 14.6673 6.32835C14.529 5.72745 14.1776 5.19689 13.6786 4.83452C13.1796 4.47215 12.5664 4.30239 11.952 4.35671C11.338 4.30268 10.7251 4.47252 10.2264 4.83488C9.7278 5.19724 9.37722 5.72771 9.23912 6.32835Z" fill="white"/>
</svg>
