<svg width="18" height="18" viewBox="0 0 18 18" fill="none" xmlns="http://www.w3.org/2000/svg">
<rect width="18" height="18" fill="none"/>
<path d="M15.4392 11.668V2.68034C15.4392 2.63603 15.4032 2.6001 15.3589 2.6001H2.67986C2.63554 2.6001 2.59961 2.63603 2.59961 2.68034V15.3594C2.59961 15.4037 2.63554 15.4396 2.67986 15.4396H11.6675" stroke="#57535F" stroke-width="1.11429" stroke-linecap="round"/>
<path d="M13.5934 13.5939C12.8602 14.3271 12.2108 14.9766 11.8608 15.3266C11.7597 15.4277 11.5873 15.3556 11.5873 15.2126L11.5873 11.7482C11.5873 11.6596 11.6591 11.5877 11.7477 11.5877L15.2121 11.5877C15.3551 11.5877 15.4272 11.7601 15.3261 11.8613C14.9761 12.2113 14.3267 12.8607 13.5934 13.5939Z" stroke="#57535F" stroke-width="1.11429"/>
<line x1="4.20459" y1="5.25292" x2="13.8343" y2="5.25292" stroke="#57535F" stroke-width="1.11429"/>
</svg>
