<svg width="18" height="18" viewBox="0 0 18 18" fill="none" xmlns="http://www.w3.org/2000/svg">
<rect width="18" height="18" fill="none"/>
<mask id="path-2-inside-1_5412_6260" fill="white">
<path fill-rule="evenodd" clip-rule="evenodd" d="M6.9998 6.7998C6.9998 4.42498 8.92498 2.4998 11.2998 2.4998C13.6746 2.4998 15.5998 4.42498 15.5998 6.7998C15.5998 9.17463 13.6746 11.0998 11.2998 11.0998V7.7998C11.2998 7.24752 10.8521 6.7998 10.2998 6.7998H6.9998ZM5.7998 6.7998C5.7998 3.76224 8.26224 1.2998 11.2998 1.2998C14.3374 1.2998 16.7998 3.76224 16.7998 6.7998C16.7998 9.83737 14.3374 12.2998 11.2998 12.2998V15.7998C11.2998 16.3521 10.8521 16.7998 10.2998 16.7998H2.2998C1.74752 16.7998 1.2998 16.3521 1.2998 15.7998V7.7998C1.2998 7.24752 1.74752 6.7998 2.2998 6.7998H5.7998Z"/>
</mask>
<path d="M6.9998 6.7998H5.7998V7.9998H6.9998V6.7998ZM11.2998 11.0998H10.0998V12.2998H11.2998V11.0998ZM5.7998 6.7998V7.9998H6.9998V6.7998H5.7998ZM11.2998 12.2998V11.0998H10.0998V12.2998H11.2998ZM11.2998 1.2998C8.26224 1.2998 5.7998 3.76224 5.7998 6.7998H8.1998C8.1998 5.08772 9.58772 3.6998 11.2998 3.6998V1.2998ZM16.7998 6.7998C16.7998 3.76224 14.3374 1.2998 11.2998 1.2998V3.6998C13.0119 3.6998 14.3998 5.08772 14.3998 6.7998H16.7998ZM11.2998 12.2998C14.3374 12.2998 16.7998 9.83737 16.7998 6.7998H14.3998C14.3998 8.51189 13.0119 9.89981 11.2998 9.89981V12.2998ZM10.0998 7.7998V11.0998H12.4998V7.7998H10.0998ZM10.2998 7.9998C10.1893 7.9998 10.0998 7.91026 10.0998 7.7998H12.4998C12.4998 6.58478 11.5148 5.5998 10.2998 5.5998V7.9998ZM6.9998 7.9998H10.2998V5.5998H6.9998V7.9998ZM11.2998 0.0998046C7.5995 0.0998046 4.5998 3.0995 4.5998 6.7998H6.9998C6.9998 4.42498 8.92498 2.4998 11.2998 2.4998V0.0998046ZM17.9998 6.7998C17.9998 3.0995 15.0001 0.0998046 11.2998 0.0998046V2.4998C13.6746 2.4998 15.5998 4.42498 15.5998 6.7998H17.9998ZM11.2998 13.4998C15.0001 13.4998 17.9998 10.5001 17.9998 6.7998H15.5998C15.5998 9.17463 13.6746 11.0998 11.2998 11.0998V13.4998ZM10.0998 12.2998V15.7998H12.4998V12.2998H10.0998ZM10.0998 15.7998C10.0998 15.6893 10.1893 15.5998 10.2998 15.5998V17.9998C11.5148 17.9998 12.4998 17.0148 12.4998 15.7998H10.0998ZM10.2998 15.5998H2.2998V17.9998H10.2998V15.5998ZM2.2998 15.5998C2.41026 15.5998 2.4998 15.6893 2.4998 15.7998H0.0998046C0.0998046 17.0148 1.08478 17.9998 2.2998 17.9998V15.5998ZM2.4998 15.7998V7.7998H0.0998046V15.7998H2.4998ZM2.4998 7.7998C2.4998 7.91026 2.41026 7.9998 2.2998 7.9998V5.5998C1.08478 5.5998 0.0998046 6.58478 0.0998046 7.7998H2.4998ZM2.2998 7.9998H5.7998V5.5998H2.2998V7.9998Z" fill="#57535F" mask="url(#path-2-inside-1_5412_6260)"/>
</svg>
