<svg width="18" height="18" viewBox="0 0 18 18" fill="none" xmlns="http://www.w3.org/2000/svg">
<rect width="18" height="18" fill="none"/>
<mask id="path-2-outside-1_5412_6255" maskUnits="userSpaceOnUse" x="0" y="0" width="17" height="16" fill="black">
<rect fill="white" width="17" height="16"/>
<path fill-rule="evenodd" clip-rule="evenodd" d="M1.75346 1.21527L1 1L1.12221 1.77402C1.37814 3.39489 2.01223 5.79953 2.7686 7.98459C3.1474 9.0789 3.56041 10.1285 3.97706 11.0045C4.38662 11.8656 4.82293 12.61 5.26254 13.0496C5.98674 13.7738 6.92326 14.0525 7.79363 14.1184C8.66321 14.1843 9.50883 14.0422 10.1169 13.8816C10.361 13.8171 10.5919 13.879 10.7288 14.0159L12.0554 15.3425C12.6412 15.9283 13.591 15.9283 14.1768 15.3425L15.7625 13.7567C16.3483 13.1709 16.3483 12.2212 15.7625 11.6354L14.3232 10.196C14.2141 10.0869 14.1591 9.92799 14.1796 9.76207C14.3335 8.51695 14.4654 6.3382 12.9696 4.84248C12.5158 4.38866 11.7744 4.01451 10.9371 3.69064C10.0834 3.36043 9.06262 3.05804 7.99404 2.77518C7.03117 2.5203 6.01781 2.2783 5.04065 2.04494L4.71676 1.96756C3.63713 1.70939 2.61632 1.46181 1.75346 1.21527ZM3.71359 7.65748C3.19508 6.15957 2.73867 4.56585 2.42711 3.21416L7.26228 8.04933C7.16857 8.24514 7.11609 8.46446 7.11609 8.69603C7.11609 9.52446 7.78767 10.196 8.61609 10.196C9.44452 10.196 10.1161 9.52446 10.1161 8.69603C10.1161 7.86761 9.44452 7.19603 8.61609 7.19603C8.38452 7.19603 8.1652 7.24851 7.96939 7.34222L3.27471 2.64755C3.66837 2.74457 4.07374 2.84199 4.48418 2.94014L4.80758 3.0174L4.8076 3.01741C5.78666 3.25123 6.78782 3.49033 7.73815 3.74189C8.79457 4.02153 9.77382 4.31289 10.5763 4.6233C11.3953 4.94006 11.9664 5.25341 12.2625 5.54959C13.3869 6.67394 13.342 8.38653 13.1872 9.63937C13.1304 10.0982 13.2801 10.5671 13.6161 10.9031L15.0554 12.3425C15.2507 12.5377 15.2507 12.8543 15.0554 13.0496L13.4696 14.6354C13.2744 14.8306 12.9578 14.8306 12.7625 14.6354L11.4359 13.3087C11.0071 12.8799 10.391 12.7749 9.86153 12.9147C9.32207 13.0572 8.59324 13.1761 7.8692 13.1213C7.14595 13.0665 6.46968 12.8425 5.96965 12.3425C5.65926 12.0321 5.28307 11.4223 4.88013 10.575C4.48428 9.74274 4.08479 8.72983 3.71359 7.65748Z"/>
</mask>
<path fill-rule="evenodd" clip-rule="evenodd" d="M1.75346 1.21527L1 1L1.12221 1.77402C1.37814 3.39489 2.01223 5.79953 2.7686 7.98459C3.1474 9.0789 3.56041 10.1285 3.97706 11.0045C4.38662 11.8656 4.82293 12.61 5.26254 13.0496C5.98674 13.7738 6.92326 14.0525 7.79363 14.1184C8.66321 14.1843 9.50883 14.0422 10.1169 13.8816C10.361 13.8171 10.5919 13.879 10.7288 14.0159L12.0554 15.3425C12.6412 15.9283 13.591 15.9283 14.1768 15.3425L15.7625 13.7567C16.3483 13.1709 16.3483 12.2212 15.7625 11.6354L14.3232 10.196C14.2141 10.0869 14.1591 9.92799 14.1796 9.76207C14.3335 8.51695 14.4654 6.3382 12.9696 4.84248C12.5158 4.38866 11.7744 4.01451 10.9371 3.69064C10.0834 3.36043 9.06262 3.05804 7.99404 2.77518C7.03117 2.5203 6.01781 2.2783 5.04065 2.04494L4.71676 1.96756C3.63713 1.70939 2.61632 1.46181 1.75346 1.21527ZM3.71359 7.65748C3.19508 6.15957 2.73867 4.56585 2.42711 3.21416L7.26228 8.04933C7.16857 8.24514 7.11609 8.46446 7.11609 8.69603C7.11609 9.52446 7.78767 10.196 8.61609 10.196C9.44452 10.196 10.1161 9.52446 10.1161 8.69603C10.1161 7.86761 9.44452 7.19603 8.61609 7.19603C8.38452 7.19603 8.1652 7.24851 7.96939 7.34222L3.27471 2.64755C3.66837 2.74457 4.07374 2.84199 4.48418 2.94014L4.80758 3.0174L4.8076 3.01741C5.78666 3.25123 6.78782 3.49033 7.73815 3.74189C8.79457 4.02153 9.77382 4.31289 10.5763 4.6233C11.3953 4.94006 11.9664 5.25341 12.2625 5.54959C13.3869 6.67394 13.342 8.38653 13.1872 9.63937C13.1304 10.0982 13.2801 10.5671 13.6161 10.9031L15.0554 12.3425C15.2507 12.5377 15.2507 12.8543 15.0554 13.0496L13.4696 14.6354C13.2744 14.8306 12.9578 14.8306 12.7625 14.6354L11.4359 13.3087C11.0071 12.8799 10.391 12.7749 9.86153 12.9147C9.32207 13.0572 8.59324 13.1761 7.8692 13.1213C7.14595 13.0665 6.46968 12.8425 5.96965 12.3425C5.65926 12.0321 5.28307 11.4223 4.88013 10.575C4.48428 9.74274 4.08479 8.72983 3.71359 7.65748Z" fill="#57535F"/>
<path d="M1 1L1.02747 0.903848L0.876781 0.860793L0.901224 1.0156L1 1ZM1.75346 1.21527L1.78093 1.11912L1.75346 1.21527ZM1.12221 1.77402L1.02344 1.78961H1.02344L1.12221 1.77402ZM2.7686 7.98459L2.8631 7.95188L2.7686 7.98459ZM3.97706 11.0045L4.06737 10.9616L3.97706 11.0045ZM5.26254 13.0496L5.19183 13.1203L5.26254 13.0496ZM7.79363 14.1184L7.80119 14.0187L7.79363 14.1184ZM10.1169 13.8816L10.1425 13.9783L10.1169 13.8816ZM14.1768 15.3425L14.106 15.2718L14.1768 15.3425ZM14.3232 10.196L14.2525 10.2667L14.3232 10.196ZM14.1796 9.76207L14.0803 9.7498L14.1796 9.76207ZM12.9696 4.84248L13.0404 4.77177L12.9696 4.84248ZM10.9371 3.69064L10.9732 3.59737L10.9371 3.69064ZM7.99404 2.77518L8.01963 2.67851L7.99404 2.77518ZM5.04065 2.04494L5.01741 2.1422L5.01742 2.14221L5.04065 2.04494ZM4.71676 1.96756L4.6935 2.06482L4.69352 2.06482L4.71676 1.96756ZM2.42711 3.21416L2.49782 3.14345L2.25139 2.89701L2.32967 3.23662L2.42711 3.21416ZM3.71359 7.65748L3.61909 7.69019L3.71359 7.65748ZM7.26228 8.04933L7.35248 8.09249L7.38303 8.02866L7.33299 7.97862L7.26228 8.04933ZM7.96939 7.34222L7.89868 7.41293L7.94872 7.46297L8.01255 7.43242L7.96939 7.34222ZM3.27471 2.64755L3.29864 2.55045L2.95036 2.46461L3.204 2.71826L3.27471 2.64755ZM4.48418 2.94014L4.46093 3.03739L4.46094 3.0374L4.48418 2.94014ZM4.80758 3.0174L4.78434 3.11467L4.78468 3.11475L4.80758 3.0174ZM4.8076 3.01741L4.83083 2.92014L4.83051 2.92007L4.8076 3.01741ZM7.73815 3.74189L7.71256 3.83856L7.73815 3.74189ZM10.5763 4.6233L10.6124 4.53004L10.5763 4.6233ZM12.2625 5.54959L12.1918 5.6203L12.2625 5.54959ZM13.1872 9.63937L13.0879 9.6271L13.1872 9.63937ZM11.4359 13.3087L11.3652 13.3795L11.4359 13.3087ZM9.86153 12.9147L9.88707 13.0114L9.86153 12.9147ZM7.8692 13.1213L7.86164 13.221L7.8692 13.1213ZM4.88013 10.575L4.97043 10.5321L4.88013 10.575ZM0.972528 1.09615L1.72598 1.31143L1.78093 1.11912L1.02747 0.903848L0.972528 1.09615ZM1.22099 1.75842L1.09878 0.984404L0.901224 1.0156L1.02344 1.78961L1.22099 1.75842ZM2.8631 7.95188C2.10801 5.7705 1.47573 3.37178 1.22099 1.75842L1.02344 1.78961C1.28055 3.41799 1.91646 5.82856 2.6741 8.0173L2.8631 7.95188ZM4.06737 10.9616C3.6528 10.0899 3.24114 9.044 2.8631 7.95188L2.6741 8.0173C3.05366 9.11381 3.46802 10.1671 3.88676 11.0475L4.06737 10.9616ZM5.33325 12.9789C4.90655 12.5522 4.47624 11.8213 4.06737 10.9616L3.88676 11.0475C4.29699 11.91 4.73931 12.6678 5.19183 13.1203L5.33325 12.9789ZM7.80119 14.0187C6.94548 13.9538 6.03501 13.6806 5.33325 12.9789L5.19183 13.1203C5.93847 13.8669 6.90103 14.1511 7.78607 14.2181L7.80119 14.0187ZM10.0914 13.7849C9.49016 13.9437 8.65622 14.0835 7.80119 14.0187L7.78607 14.2181C8.67021 14.2851 9.52751 14.1407 10.1425 13.9783L10.0914 13.7849ZM10.7995 13.9451C10.6338 13.7794 10.3645 13.7127 10.0914 13.7849L10.1425 13.9783C10.3574 13.9215 10.5501 13.9785 10.6581 14.0866L10.7995 13.9451ZM12.1261 15.2718L10.7995 13.9451L10.6581 14.0866L11.9847 15.4132L12.1261 15.2718ZM14.106 15.2718C13.5593 15.8185 12.6729 15.8185 12.1261 15.2718L11.9847 15.4132C12.6096 16.038 13.6226 16.038 14.2475 15.4132L14.106 15.2718ZM15.6918 13.686L14.106 15.2718L14.2475 15.4132L15.8333 13.8274L15.6918 13.686ZM15.6918 11.7061C16.2386 12.2528 16.2386 13.1393 15.6918 13.686L15.8333 13.8274C16.4581 13.2026 16.4581 12.1895 15.8333 11.5647L15.6918 11.7061ZM14.2525 10.2667L15.6918 11.7061L15.8333 11.5647L14.3939 10.1253L14.2525 10.2667ZM14.0803 9.7498C14.0562 9.94512 14.1207 10.135 14.2525 10.2667L14.3939 10.1253C14.3074 10.0388 14.262 9.91086 14.2788 9.77434L14.0803 9.7498ZM12.8989 4.91319C14.3575 6.37178 14.2344 8.50393 14.0803 9.7498L14.2788 9.77434C14.4327 8.52997 14.5732 6.30462 13.0404 4.77177L12.8989 4.91319ZM10.901 3.78391C11.7364 4.10704 12.4609 4.47512 12.8989 4.91319L13.0404 4.77177C12.5708 4.30221 11.8124 3.92198 10.9732 3.59737L10.901 3.78391ZM7.96845 2.87185C9.03581 3.15439 10.0524 3.45567 10.901 3.78391L10.9732 3.59737C10.1143 3.26518 9.08943 2.96169 8.01963 2.67851L7.96845 2.87185ZM5.01742 2.14221C5.99481 2.37562 7.00696 2.61734 7.96845 2.87185L8.01963 2.67851C7.05538 2.42327 6.04081 2.18098 5.06388 1.94768L5.01742 2.14221ZM4.69352 2.06482L5.01741 2.1422L5.06389 1.94768L4.73999 1.8703L4.69352 2.06482ZM1.72598 1.31143C2.59128 1.55865 3.61418 1.80672 4.6935 2.06482L4.74001 1.8703C3.66009 1.61206 2.64137 1.36496 1.78093 1.11912L1.72598 1.31143ZM2.32967 3.23662C2.64206 4.59192 3.09947 6.18907 3.61909 7.69019L3.80809 7.62477C3.29069 6.13008 2.83528 4.53977 2.52455 3.1917L2.32967 3.23662ZM7.33299 7.97862L2.49782 3.14345L2.3564 3.28487L7.19157 8.12004L7.33299 7.97862ZM7.21609 8.69603C7.21609 8.47972 7.26509 8.27512 7.35248 8.09249L7.17208 8.00616C7.07206 8.21517 7.01609 8.44921 7.01609 8.69603H7.21609ZM8.61609 10.096C7.8429 10.096 7.21609 9.46923 7.21609 8.69603H7.01609C7.01609 9.57969 7.73244 10.296 8.61609 10.296V10.096ZM10.0161 8.69603C10.0161 9.46923 9.38929 10.096 8.61609 10.096V10.296C9.49975 10.296 10.2161 9.57969 10.2161 8.69603H10.0161ZM8.61609 7.29603C9.38929 7.29603 10.0161 7.92284 10.0161 8.69603H10.2161C10.2161 7.81238 9.49975 7.09604 8.61609 7.09604V7.29603ZM8.01255 7.43242C8.19518 7.34503 8.39978 7.29603 8.61609 7.29603V7.09604C8.36927 7.09604 8.13523 7.152 7.92622 7.25202L8.01255 7.43242ZM3.204 2.71826L7.89868 7.41293L8.0401 7.27151L3.34542 2.57684L3.204 2.71826ZM4.50744 2.84288C4.09704 2.74474 3.69195 2.64739 3.29864 2.55045L3.25078 2.74464C3.6448 2.84175 4.05044 2.93924 4.46093 3.03739L4.50744 2.84288ZM4.83082 2.92014L4.50742 2.84287L4.46094 3.0374L4.78434 3.11467L4.83082 2.92014ZM4.83051 2.92007L4.83048 2.92006L4.78468 3.11475L4.7847 3.11475L4.83051 2.92007ZM7.76374 3.64522C6.81203 3.39329 5.80965 3.15391 4.83083 2.92015L4.78437 3.11467C5.76366 3.34855 6.76361 3.58737 7.71256 3.83856L7.76374 3.64522ZM10.6124 4.53004C9.80477 4.21765 8.82137 3.92518 7.76374 3.64522L7.71256 3.83856C8.76776 4.11788 9.74287 4.40814 10.5403 4.71657L10.6124 4.53004ZM12.3333 5.47888C12.0213 5.16691 11.4331 4.84748 10.6124 4.53004L10.5403 4.71657C11.3574 5.03264 11.9114 5.3399 12.1918 5.6203L12.3333 5.47888ZM13.2864 9.65164C13.4412 8.3996 13.4948 6.64038 12.3333 5.47888L12.1918 5.6203C13.279 6.70751 13.2429 8.37346 13.0879 9.6271L13.2864 9.65164ZM13.6868 10.8324C13.3735 10.5191 13.2333 10.0812 13.2864 9.65164L13.0879 9.6271C13.0276 10.1152 13.1867 10.6151 13.5454 10.9739L13.6868 10.8324ZM15.1261 12.2718L13.6868 10.8324L13.5454 10.9739L14.9847 12.4132L15.1261 12.2718ZM15.1261 13.1203C15.3605 12.886 15.3605 12.5061 15.1261 12.2718L14.9847 12.4132C15.1409 12.5694 15.1409 12.8227 14.9847 12.9789L15.1261 13.1203ZM13.5404 14.7061L15.1261 13.1203L14.9847 12.9789L13.3989 14.5647L13.5404 14.7061ZM12.6918 14.7061C12.9261 14.9404 13.306 14.9404 13.5404 14.7061L13.3989 14.5647C13.2427 14.7209 12.9895 14.7209 12.8333 14.5647L12.6918 14.7061ZM11.3652 13.3795L12.6918 14.7061L12.8333 14.5647L11.5066 13.238L11.3652 13.3795ZM9.88707 13.0114C10.3882 12.879 10.9657 12.9799 11.3652 13.3795L11.5066 13.238C11.0485 12.7799 10.3938 12.6707 9.83599 12.818L9.88707 13.0114ZM7.86164 13.221C8.60023 13.277 9.34074 13.1557 9.88707 13.0114L9.83599 12.818C9.30339 12.9587 8.58624 13.0753 7.87676 13.0216L7.86164 13.221ZM5.89894 12.4132C6.42136 12.9356 7.12362 13.1651 7.86164 13.221L7.87676 13.0216C7.16828 12.9679 6.518 12.7494 6.04036 12.2718L5.89894 12.4132ZM4.78982 10.618C5.19341 11.4665 5.57561 12.0899 5.89894 12.4132L6.04036 12.2718C5.74291 11.9743 5.37274 11.378 4.97043 10.5321L4.78982 10.618ZM3.61909 7.69019C3.99105 8.76474 4.39189 9.78131 4.78982 10.618L4.97043 10.5321C4.57667 9.70416 4.17853 8.69493 3.80809 7.62477L3.61909 7.69019Z" fill="#57535F" mask="url(#path-2-outside-1_5412_6255)"/>
</svg>
