<svg width="100" height="100" viewBox="0 0 100 100" fill="none" xmlns="http://www.w3.org/2000/svg">
<rect width="91.8399" height="82.7312" transform="translate(5.16211 0.929688) rotate(0.499997)" fill="#FFF6C8"/>
<path d="M13.7924 13.205L23.7221 13.2916L23.6828 17.7915L13.7532 17.7048L13.7924 13.205ZM22.3761 13.2799L32.3057 13.3665L32.2665 17.8664L22.3368 17.7797L22.3761 13.2799ZM30.9598 13.3548L36.5995 13.404L36.5603 17.9038L30.9205 17.8546L30.9598 13.3548ZM35.2516 13.3923L45.1812 13.4789L45.1419 17.9787L35.2123 17.8921L35.2516 13.3923ZM43.8352 13.4672L49.475 13.5164L49.4358 18.0162L43.796 17.967L43.8352 13.4672ZM48.1271 13.5046L58.0567 13.5913L58.0174 18.0911L48.0878 18.0044L48.1271 13.5046ZM56.7107 13.5795L66.6404 13.6662L66.6011 18.166L56.6715 18.0794L56.7107 13.5795ZM65.2944 13.6544L75.224 13.7411L75.1847 18.2409L65.2551 18.1543L65.2944 13.6544ZM73.878 13.7293L83.8077 13.816L83.7684 18.3158L73.8388 18.2292L73.878 13.7293ZM13.6703 27.2044L23.5999 27.2911L23.5606 31.7909L13.631 31.7043L13.6703 27.2044ZM22.2539 27.2794L32.1836 27.366L32.1443 31.8658L22.2147 31.7792L22.2539 27.2794ZM30.8376 27.3543L40.7672 27.4409L40.7279 31.9407L30.7983 31.8541L30.8376 27.3543ZM39.4212 27.4292L49.3509 27.5158L49.3116 32.0157L39.382 31.929L39.4212 27.4292ZM48.0049 27.5041L53.6447 27.5533L53.6054 32.0531L47.9656 32.0039L48.0049 27.5041ZM52.2967 27.5415L62.2264 27.6282L62.1871 32.128L52.2575 32.0414L52.2967 27.5415ZM60.8804 27.6164L70.81 27.7031L70.7707 32.2029L60.8411 32.1163L60.8804 27.6164ZM13.5394 42.2039L23.469 42.2905L23.4297 46.7904L13.5001 46.7037L13.5394 42.2039ZM22.123 42.2788L32.0527 42.3654L32.0134 46.8653L22.0838 46.7786L22.123 42.2788ZM30.7067 42.3537L40.6363 42.4403L40.597 46.9402L30.6674 46.8535L30.7067 42.3537Z" fill="#E4D792"/>
<g filter="url(#filter0_f_5422_47538)">
<rect width="86.6371" height="3.08203" transform="matrix(0.998608 -0.0527503 0.0358385 0.999358 6.99121 93.053)" fill="black" fill-opacity="0.1"/>
</g>
<g filter="url(#filter1_f_5422_47538)">
<rect x="7.00879" y="89.8472" width="86.592" height="3.0832" transform="rotate(0.499997 7.00879 89.8472)" fill="black" fill-opacity="0.1"/>
</g>
<rect x="4.43945" y="83.658" width="91.8399" height="9.24959" transform="rotate(0.499997 4.43945 83.658)" fill="#FFF6C8"/>
<defs>
<filter id="filter0_f_5422_47538" x="3.908" y="85.3997" width="92.7934" height="13.8166" filterUnits="userSpaceOnUse" color-interpolation-filters="sRGB">
<feFlood flood-opacity="0" result="BackgroundImageFix"/>
<feBlend mode="normal" in="SourceGraphic" in2="BackgroundImageFix" result="shape"/>
<feGaussianBlur stdDeviation="1.54161" result="effect1_foregroundBlur_5422_47538"/>
</filter>
<filter id="filter1_f_5422_47538" x="0.815018" y="83.6807" width="98.9491" height="16.1715" filterUnits="userSpaceOnUse" color-interpolation-filters="sRGB">
<feFlood flood-opacity="0" result="BackgroundImageFix"/>
<feBlend mode="normal" in="SourceGraphic" in2="BackgroundImageFix" result="shape"/>
<feGaussianBlur stdDeviation="3.08321" result="effect1_foregroundBlur_5422_47538"/>
</filter>
</defs>
</svg>
