<svg width="111" height="114" viewBox="0 0 111 114" fill="none" xmlns="http://www.w3.org/2000/svg">
<g clip-path="url(#clip0_6406_1422)">
<rect width="91.8399" height="82.7312" transform="translate(0.0859375 16.792) rotate(-10.1669)" fill="#E8E2FF"/>
<path d="M10.8387 27.2582L20.6128 25.5054L21.4071 29.9347L11.6331 31.6875L10.8387 27.2582ZM19.2879 25.743L24.8394 24.7474L25.6337 29.1768L20.0823 30.1723L19.2879 25.743ZM23.5125 24.9854L29.064 23.9898L29.8583 28.4191L24.3069 29.4147L23.5125 24.9854ZM27.7371 24.2278L37.5112 22.4749L38.3055 26.9043L28.5315 28.6571L27.7371 24.2278ZM36.1863 22.7125L45.9604 20.9597L46.7547 25.3891L36.9807 27.1419L36.1863 22.7125ZM44.6355 21.1973L50.187 20.2018L50.9813 24.6311L45.4298 25.6267L44.6355 21.1973ZM48.8601 20.4397L54.4116 19.4442L55.2059 23.8735L49.6544 24.8691L48.8601 20.4397ZM53.0847 19.6821L58.6362 18.6866L59.4305 23.1159L53.879 24.1115L53.0847 19.6821ZM13.31 41.0383L23.084 39.2855L23.8784 43.7149L14.1043 45.4677L13.31 41.0383ZM21.7592 39.5231L31.5332 37.7703L32.3276 42.1997L22.5535 43.9525L21.7592 39.5231ZM30.2084 38.0079L39.9824 36.2551L40.7768 40.6845L31.0027 42.4373L30.2084 38.0079ZM38.6576 36.4927L44.209 35.4972L45.0033 39.9265L39.4519 40.9221L38.6576 36.4927ZM42.8822 35.7351L52.6562 33.9823L53.4506 38.4116L43.6765 40.1644L42.8822 35.7351ZM51.3314 34.2199L61.1054 32.4671L61.8998 36.8964L52.1257 38.6492L51.3314 34.2199ZM59.7805 32.7047L65.332 31.7091L66.1263 36.1385L60.5749 37.134L59.7805 32.7047ZM64.0051 31.9471L69.5566 30.9515L70.3509 35.3809L64.7995 36.3764L64.0051 31.9471ZM68.2297 31.1895L78.0038 29.4367L78.7981 33.866L69.0241 35.6188L68.2297 31.1895ZM76.6789 29.6743L86.453 27.9214L87.2473 32.3508L77.4733 34.1036L76.6789 29.6743ZM15.9577 55.8028L21.5091 54.8073L22.3035 59.2366L16.752 60.2322L15.9577 55.8028ZM20.1823 55.0452L29.9564 53.2924L30.7507 57.7217L20.9766 59.4745L20.1823 55.0452ZM28.6315 53.53L38.4056 51.7772L39.1999 56.2065L29.4258 57.9593L28.6315 53.53ZM37.0807 52.0148L42.6321 51.0192L43.4265 55.4486L37.875 56.4441L37.0807 52.0148ZM18.4289 69.583L28.203 67.8302L28.9973 72.2595L19.2233 74.0123L18.4289 69.583ZM26.8781 68.0678L36.6522 66.315L37.4465 70.7443L27.6725 72.4971L26.8781 68.0678ZM35.3273 66.5526L45.1014 64.7998L45.8957 69.2291L36.1217 70.9819L35.3273 66.5526ZM43.7765 65.0373L53.5506 63.2845L54.3449 67.7139L44.5708 69.4667L43.7765 65.0373ZM52.2257 63.5221L57.7772 62.5266L58.5715 66.9559L53.02 67.9515L52.2257 63.5221ZM56.4503 62.7645L66.2244 61.0117L67.0187 65.4411L57.2446 67.1939L56.4503 62.7645ZM64.8995 61.2493L74.6736 59.4965L75.4679 63.9258L65.6938 65.6787L64.8995 61.2493Z" fill="#D4CFE8"/>
</g>
<g filter="url(#filter0_f_6406_1422)">
<rect width="86.6371" height="3.08203" transform="matrix(0.971588 -0.23668 0.220199 0.975455 18.9365 106.985)" fill="black" fill-opacity="0.1"/>
</g>
<g filter="url(#filter1_f_6406_1422)">
<rect x="18.3604" y="103.831" width="86.592" height="3.0832" transform="rotate(-10.1669 18.3604 103.831)" fill="black" fill-opacity="0.1"/>
</g>
<rect x="14.6895" y="98.2246" width="91.8399" height="9.24959" transform="rotate(-10.1669 14.6895 98.2246)" fill="#E8E2FF"/>
<defs>
<filter id="filter0_f_6406_1422" x="15.8533" y="83.3973" width="91.0209" height="29.6781" filterUnits="userSpaceOnUse" color-interpolation-filters="sRGB">
<feFlood flood-opacity="0" result="BackgroundImageFix"/>
<feBlend mode="normal" in="SourceGraphic" in2="BackgroundImageFix" result="shape"/>
<feGaussianBlur stdDeviation="1.54161" result="effect1_foregroundBlur_6406_1422"/>
</filter>
<filter id="filter1_f_6406_1422" x="12.1939" y="82.3795" width="98.1092" height="30.6532" filterUnits="userSpaceOnUse" color-interpolation-filters="sRGB">
<feFlood flood-opacity="0" result="BackgroundImageFix"/>
<feBlend mode="normal" in="SourceGraphic" in2="BackgroundImageFix" result="shape"/>
<feGaussianBlur stdDeviation="3.08321" result="effect1_foregroundBlur_6406_1422"/>
</filter>
<clipPath id="clip0_6406_1422">
<rect width="91.8399" height="82.7312" fill="white" transform="translate(0.0859375 16.792) rotate(-10.1669)"/>
</clipPath>
</defs>
</svg>
