<svg width="100" height="100" viewBox="0 0 100 100" fill="none" xmlns="http://www.w3.org/2000/svg">
<rect width="91.8399" height="82.7312" transform="translate(5.16211 0.929688) rotate(0.499997)" fill="#E1FFED"/>
<path d="M13.7924 13.205L23.7221 13.2916L23.6828 17.7915L13.7532 17.7048L13.7924 13.205ZM22.3761 13.2799L28.0159 13.3291L27.9766 17.8289L22.3368 17.7797L22.3761 13.2799ZM26.6679 13.3173L32.3077 13.3666L32.2684 17.8664L26.6287 17.8172L26.6679 13.3173ZM30.9598 13.3548L40.8894 13.4415L40.8501 17.9413L30.9205 17.8546L30.9598 13.3548ZM39.5434 13.4297L49.473 13.5164L49.4338 18.0162L39.5041 17.9295L39.5434 13.4297ZM48.1271 13.5046L53.7669 13.5538L53.7276 18.0537L48.0878 18.0044L48.1271 13.5046ZM52.4189 13.5421L58.0587 13.5913L58.0194 18.0911L52.3796 18.0419L52.4189 13.5421ZM56.7107 13.5795L62.3505 13.6287L62.3112 18.1286L56.6715 18.0794L56.7107 13.5795ZM13.6703 27.2044L23.5999 27.2911L23.5606 31.7909L13.631 31.7043L13.6703 27.2044ZM22.2539 27.2794L32.1836 27.366L32.1443 31.8658L22.2147 31.7792L22.2539 27.2794ZM30.8376 27.3543L40.7672 27.4409L40.7279 31.9407L30.7983 31.8541L30.8376 27.3543ZM39.4212 27.4292L45.061 27.4784L45.0218 31.9782L39.382 31.929L39.4212 27.4292ZM43.7131 27.4666L53.6427 27.5533L53.6034 32.0531L43.6738 31.9665L43.7131 27.4666ZM52.2967 27.5415L62.2264 27.6282L62.1871 32.128L52.2575 32.0414L52.2967 27.5415ZM60.8804 27.6164L66.5202 27.6657L66.4809 32.1655L60.8411 32.1163L60.8804 27.6164ZM65.1722 27.6539L70.812 27.7031L70.7727 32.2029L65.1329 32.1537L65.1722 27.6539ZM69.464 27.6914L79.3937 27.778L79.3544 32.2778L69.4248 32.1912L69.464 27.6914ZM78.0477 27.7663L87.9773 27.8529L87.9381 32.3527L78.0084 32.2661L78.0477 27.7663ZM13.5394 42.2039L19.1792 42.2531L19.1399 46.7529L13.5001 46.7037L13.5394 42.2039ZM17.8312 42.2413L27.7608 42.328L27.7216 46.8278L17.7919 46.7412L17.8312 42.2413ZM26.4149 42.3162L36.3445 42.4029L36.3052 46.9027L26.3756 46.8161L26.4149 42.3162ZM34.9985 42.3911L40.6383 42.4404L40.599 46.9402L34.9592 46.891L34.9985 42.3911ZM39.2903 42.4286L49.22 42.5153L49.1807 47.0151L39.2511 46.9284L39.2903 42.4286ZM47.874 42.5035L57.8036 42.5902L57.7644 47.09L47.8347 47.0033L47.874 42.5035ZM56.4577 42.5784L66.3873 42.6651L66.348 47.1649L56.4184 47.0782L56.4577 42.5784ZM65.0413 42.6533L74.9709 42.74L74.9317 47.2398L65.0021 47.1532L65.0413 42.6533ZM73.625 42.7282L79.2648 42.7775L79.2255 47.2773L73.5857 47.2281L73.625 42.7282ZM77.9168 42.7657L87.8464 42.8523L87.8072 47.3522L77.8775 47.2655L77.9168 42.7657Z" fill="#C3EED4"/>
<g filter="url(#filter0_f_5422_47498)">
<rect width="86.6371" height="3.08203" transform="matrix(0.998608 -0.0527503 0.0358385 0.999358 6.99121 93.053)" fill="black" fill-opacity="0.1"/>
</g>
<g filter="url(#filter1_f_5422_47498)">
<rect x="7.00879" y="89.8472" width="86.592" height="3.0832" transform="rotate(0.499997 7.00879 89.8472)" fill="black" fill-opacity="0.1"/>
</g>
<rect x="4.43945" y="83.658" width="91.8399" height="9.24959" transform="rotate(0.499997 4.43945 83.658)" fill="#E1FFED"/>
<defs>
<filter id="filter0_f_5422_47498" x="3.908" y="85.3997" width="92.7934" height="13.8166" filterUnits="userSpaceOnUse" color-interpolation-filters="sRGB">
<feFlood flood-opacity="0" result="BackgroundImageFix"/>
<feBlend mode="normal" in="SourceGraphic" in2="BackgroundImageFix" result="shape"/>
<feGaussianBlur stdDeviation="1.54161" result="effect1_foregroundBlur_5422_47498"/>
</filter>
<filter id="filter1_f_5422_47498" x="0.815018" y="83.6807" width="98.9491" height="16.1715" filterUnits="userSpaceOnUse" color-interpolation-filters="sRGB">
<feFlood flood-opacity="0" result="BackgroundImageFix"/>
<feBlend mode="normal" in="SourceGraphic" in2="BackgroundImageFix" result="shape"/>
<feGaussianBlur stdDeviation="3.08321" result="effect1_foregroundBlur_5422_47498"/>
</filter>
</defs>
</svg>
