<svg width="18" height="18" viewBox="0 0 18 18" fill="none" xmlns="http://www.w3.org/2000/svg">
<path d="M10.7137 15.6861L10.6657 15.6861C8.625 15.6374 5.72625 12.4416 3.60675 10.1084C3.08025 9.5271 2.61525 9.0156 2.25 8.65035L2.96625 7.9341C3.34125 8.3091 3.81675 8.8341 4.35675 9.42735C6.12525 11.3774 9.0855 14.6354 10.6897 14.6736C10.7931 14.6803 10.8966 14.6646 10.9933 14.6275C11.09 14.5905 11.1776 14.5331 11.25 14.4591C11.958 13.7511 10.575 11.9481 9.35625 10.3574C7.8525 8.39385 6.2955 6.3636 7.575 5.0841C7.72024 4.92358 7.89878 4.79672 8.09815 4.71239C8.29752 4.62805 8.51291 4.58828 8.72925 4.59585C9.8115 4.61985 10.8292 5.73585 11.9092 6.92085C12.6345 7.71435 13.5367 8.70285 14.0355 8.71335C14.0769 8.71341 14.1178 8.70398 14.155 8.68578C14.1921 8.66758 14.2247 8.64109 14.25 8.60835C14.6557 8.20335 14.2395 7.62735 13.155 6.48885C12.432 5.73135 11.7495 5.01435 11.769 4.2651C11.7747 4.10589 11.8122 3.94944 11.8795 3.80503C11.9467 3.66061 12.0423 3.53116 12.1605 3.42435C12.2917 3.28139 12.453 3.16935 12.6328 3.09633C12.8125 3.02331 13.0063 2.99112 13.2 3.0021C13.6803 3.0688 14.1153 3.32143 14.4112 3.7056L13.608 4.32285C13.4895 4.1682 13.3217 4.05865 13.1325 4.01235C13.0995 4.00785 13.0095 4.00485 12.8677 4.14735C12.7845 4.2261 12.7837 4.2666 12.783 4.2891C12.774 4.6176 13.4182 5.29335 13.8892 5.7891C14.8395 6.78585 16.1392 8.15085 14.9677 9.32385C14.8471 9.45531 14.6992 9.55895 14.5345 9.62759C14.3698 9.69623 14.1921 9.72822 14.0137 9.72135C13.0822 9.70035 12.1935 8.72685 11.1637 7.59885C10.3567 6.7191 9.3555 5.6226 8.70525 5.6076C8.62658 5.60824 8.54896 5.62579 8.47767 5.65904C8.40637 5.6923 8.34305 5.74049 8.292 5.80035C7.63875 6.4521 8.979 8.20035 10.161 9.74085C11.7045 11.7561 13.302 13.8396 11.9662 15.1754C11.8025 15.3403 11.6072 15.4706 11.392 15.5583C11.1768 15.6461 10.9461 15.6895 10.7137 15.6861Z" fill="#57535F"/>
<path d="M10.7137 15.6861L10.6657 15.6861C8.625 15.6374 5.72625 12.4416 3.60675 10.1083C3.08025 9.5271 2.61525 9.0156 2.25 8.65035L2.96625 7.9341C3.34125 8.3091 3.81675 8.8341 4.35675 9.42735C6.12525 11.3774 9.0855 14.6354 10.6897 14.6736C10.7931 14.6803 10.8966 14.6646 10.9933 14.6275C11.09 14.5905 11.1776 14.5331 11.25 14.4591C11.958 13.7511 10.575 11.9481 9.35625 10.3574C7.8525 8.39385 6.2955 6.3636 7.575 5.0841C7.72024 4.92358 7.89878 4.79672 8.09815 4.71239C8.29752 4.62805 8.51291 4.58828 8.72925 4.59585C9.8115 4.61985 10.8292 5.73585 11.9092 6.92085C12.6345 7.71435 13.5367 8.70285 14.0355 8.71335C14.0769 8.71341 14.1178 8.70398 14.155 8.68578C14.1921 8.66758 14.2247 8.64109 14.25 8.60835C14.6557 8.20335 14.2395 7.62735 13.155 6.48885C12.432 5.73135 11.7495 5.01435 11.769 4.2651C11.7747 4.10589 11.8122 3.94944 11.8795 3.80503C11.9467 3.66061 12.0423 3.53116 12.1605 3.42435C12.2917 3.28139 12.453 3.16935 12.6328 3.09633C12.8125 3.02331 13.0063 2.99112 13.2 3.0021C13.6803 3.0688 14.1153 3.32143 14.4112 3.7056L13.608 4.32285C13.4895 4.1682 13.3217 4.05865 13.1325 4.01235C13.0995 4.00785 13.0095 4.00485 12.8677 4.14735C12.7845 4.2261 12.7837 4.2666 12.783 4.2891C12.774 4.6176 13.4182 5.29335 13.8892 5.7891C14.8395 6.78585 16.1392 8.15085 14.9677 9.32385C14.8471 9.45531 14.6992 9.55895 14.5345 9.62759C14.3698 9.69623 14.1921 9.72822 14.0137 9.72135C13.0822 9.70035 12.1935 8.72685 11.1637 7.59885C10.3567 6.7191 9.3555 5.6226 8.70525 5.6076C8.62658 5.60824 8.54897 5.62579 8.47767 5.65904C8.40637 5.6923 8.34305 5.74049 8.292 5.80035C7.63875 6.4521 8.979 8.20035 10.161 9.74085C11.7045 11.7561 13.302 13.8396 11.9662 15.1754C11.8025 15.3403 11.6072 15.4706 11.392 15.5583C11.1768 15.6461 10.9461 15.6895 10.7137 15.6861" stroke="#57535F" stroke-width="0.2"/>
</svg>
