<svg width="18" height="18" viewBox="0 0 18 18" fill="none" xmlns="http://www.w3.org/2000/svg">
<path d="M17.6997 7.00019C17.6997 7.50019 17.3997 8.00019 16.8997 8.1002L9.99971 10.1002L7.99971 17.0002C7.89971 17.4002 7.49971 17.7002 6.99971 17.7002C6.49971 17.7002 5.99971 17.4002 5.89971 16.8002L2.29971 3.6002C2.19971 3.2002 2.29971 2.8002 2.59971 2.5002C2.89971 2.2002 3.29971 2.1002 3.69971 2.2002L16.8997 5.8002C17.3997 6.00019 17.6997 6.40019 17.6997 7.00019ZM6.99971 16.0002L8.89971 9.6002C8.99971 9.2002 9.29971 8.9002 9.69971 8.8002L15.9997 7.00019L3.59971 3.7002L6.99971 16.0002Z" fill="#57535F"/>
</svg>
