<svg width="100" height="100" viewBox="0 0 100 100" fill="none" xmlns="http://www.w3.org/2000/svg">
<rect width="91.8399" height="82.7312" transform="translate(4.68359 0.929688) rotate(0.499997)" fill="#E1FFED"/>
<path d="M13.3139 13.205L23.2436 13.2916L23.2043 17.7915L13.2747 17.7048L13.3139 13.205ZM21.8976 13.2799L31.8272 13.3665L31.7879 17.8664L21.8583 17.7797L21.8976 13.2799ZM30.4812 13.3548L36.121 13.404L36.0818 17.9038L30.442 17.8546L30.4812 13.3548ZM34.7731 13.3923L44.7027 13.4789L44.6634 17.9787L34.7338 17.8921L34.7731 13.3923ZM43.3567 13.4672L48.9965 13.5164L48.9572 18.0162L43.3175 17.967L43.3567 13.4672ZM47.6486 13.5046L57.5782 13.5913L57.5389 18.0911L47.6093 18.0044L47.6486 13.5046ZM56.2322 13.5795L66.1618 13.6662L66.1226 18.166L56.1929 18.0794L56.2322 13.5795ZM64.8159 13.6544L74.7455 13.7411L74.7062 18.2409L64.7766 18.1543L64.8159 13.6544ZM73.3995 13.7293L83.3292 13.816L83.2899 18.3158L73.3603 18.2292L73.3995 13.7293ZM13.1918 27.2044L23.1214 27.2911L23.0821 31.7909L13.1525 31.7043L13.1918 27.2044ZM21.7754 27.2794L31.705 27.366L31.6658 31.8658L21.7361 31.7792L21.7754 27.2794ZM30.3591 27.3543L40.2887 27.4409L40.2494 31.9407L30.3198 31.8541L30.3591 27.3543ZM38.9427 27.4292L48.8724 27.5158L48.8331 32.0157L38.9035 31.929L38.9427 27.4292ZM47.5264 27.5041L53.1662 27.5533L53.1269 32.0531L47.4871 32.0039L47.5264 27.5041ZM51.8182 27.5415L61.7478 27.6282L61.7086 32.128L51.7789 32.0414L51.8182 27.5415ZM60.4019 27.6164L70.3315 27.7031L70.2922 32.2029L60.3626 32.1163L60.4019 27.6164ZM13.0609 42.2039L22.9905 42.2905L22.9512 46.7904L13.0216 46.7037L13.0609 42.2039ZM21.6445 42.2788L31.5741 42.3654L31.5349 46.8653L21.6052 46.7786L21.6445 42.2788ZM30.2282 42.3537L40.1578 42.4403L40.1185 46.9402L30.1889 46.8535L30.2282 42.3537Z" fill="#C3EED4"/>
<g filter="url(#filter0_f_5422_47562)">
<rect width="86.6371" height="3.08203" transform="matrix(0.998608 -0.0527503 0.0358385 0.999358 6.5127 93.053)" fill="black" fill-opacity="0.1"/>
</g>
<g filter="url(#filter1_f_5422_47562)">
<rect x="6.53027" y="89.8472" width="86.592" height="3.0832" transform="rotate(0.499997 6.53027 89.8472)" fill="black" fill-opacity="0.1"/>
</g>
<rect x="3.96094" y="83.658" width="91.8399" height="9.24959" transform="rotate(0.499997 3.96094 83.658)" fill="#E1FFED"/>
<defs>
<filter id="filter0_f_5422_47562" x="3.42948" y="85.3997" width="92.7934" height="13.8166" filterUnits="userSpaceOnUse" color-interpolation-filters="sRGB">
<feFlood flood-opacity="0" result="BackgroundImageFix"/>
<feBlend mode="normal" in="SourceGraphic" in2="BackgroundImageFix" result="shape"/>
<feGaussianBlur stdDeviation="1.54161" result="effect1_foregroundBlur_5422_47562"/>
</filter>
<filter id="filter1_f_5422_47562" x="0.336502" y="83.6807" width="98.9491" height="16.1715" filterUnits="userSpaceOnUse" color-interpolation-filters="sRGB">
<feFlood flood-opacity="0" result="BackgroundImageFix"/>
<feBlend mode="normal" in="SourceGraphic" in2="BackgroundImageFix" result="shape"/>
<feGaussianBlur stdDeviation="3.08321" result="effect1_foregroundBlur_5422_47562"/>
</filter>
</defs>
</svg>
