<svg width="100" height="100" viewBox="0 0 100 100" fill="none" xmlns="http://www.w3.org/2000/svg">
<rect width="91.8399" height="82.7312" transform="translate(4.68359 0.929688) rotate(0.499997)" fill="#FFF6C8"/>
<path d="M13.3139 13.205L23.2436 13.2916L23.2043 17.7915L13.2747 17.7048L13.3139 13.205ZM21.8976 13.2799L27.5374 13.3291L27.4981 17.8289L21.8583 17.7797L21.8976 13.2799ZM26.1894 13.3173L31.8292 13.3666L31.7899 17.8664L26.1501 17.8172L26.1894 13.3173ZM30.4812 13.3548L40.4109 13.4415L40.3716 17.9413L30.442 17.8546L30.4812 13.3548ZM39.0649 13.4297L48.9945 13.5164L48.9553 18.0162L39.0256 17.9295L39.0649 13.4297ZM47.6486 13.5046L53.2883 13.5538L53.2491 18.0537L47.6093 18.0044L47.6486 13.5046ZM51.9404 13.5421L57.5802 13.5913L57.5409 18.0911L51.9011 18.0419L51.9404 13.5421ZM56.2322 13.5795L61.872 13.6287L61.8327 18.1286L56.1929 18.0794L56.2322 13.5795ZM13.1918 27.2044L23.1214 27.2911L23.0821 31.7909L13.1525 31.7043L13.1918 27.2044ZM21.7754 27.2794L31.705 27.366L31.6658 31.8658L21.7361 31.7792L21.7754 27.2794ZM30.3591 27.3543L40.2887 27.4409L40.2494 31.9407L30.3198 31.8541L30.3591 27.3543ZM38.9427 27.4292L44.5825 27.4784L44.5432 31.9782L38.9035 31.929L38.9427 27.4292ZM43.2346 27.4666L53.1642 27.5533L53.1249 32.0531L43.1953 31.9665L43.2346 27.4666ZM51.8182 27.5415L61.7478 27.6282L61.7086 32.128L51.7789 32.0414L51.8182 27.5415ZM60.4019 27.6164L66.0417 27.6657L66.0024 32.1655L60.3626 32.1163L60.4019 27.6164ZM64.6937 27.6539L70.3335 27.7031L70.2942 32.2029L64.6544 32.1537L64.6937 27.6539ZM68.9855 27.6914L78.9152 27.778L78.8759 32.2778L68.9463 32.1912L68.9855 27.6914ZM77.5692 27.7663L87.4988 27.8529L87.4595 32.3527L77.5299 32.2661L77.5692 27.7663ZM13.0609 42.2039L18.7006 42.2531L18.6614 46.7529L13.0216 46.7037L13.0609 42.2039ZM17.3527 42.2413L27.2823 42.328L27.243 46.8278L17.3134 46.7412L17.3527 42.2413ZM25.9363 42.3162L35.866 42.4029L35.8267 46.9027L25.8971 46.8161L25.9363 42.3162ZM34.52 42.3911L40.1598 42.4404L40.1205 46.9402L34.4807 46.891L34.52 42.3911ZM12.9387 56.2033L22.8683 56.29L22.829 60.7898L12.8994 60.7032L12.9387 56.2033ZM21.5223 56.2783L31.452 56.3649L31.4127 60.8647L21.4831 60.7781L21.5223 56.2783ZM30.106 56.3532L40.0356 56.4398L39.9964 60.9396L30.0667 60.853L30.106 56.3532ZM38.6897 56.4281L48.6193 56.5147L48.58 61.0146L38.6504 60.9279L38.6897 56.4281ZM47.2733 56.503L52.9131 56.5522L52.8738 61.052L47.234 61.0028L47.2733 56.503ZM51.5651 56.5404L61.4948 56.6271L61.4555 61.1269L51.5259 61.0403L51.5651 56.5404ZM60.1488 56.6153L70.0784 56.702L70.0392 61.2018L60.1095 61.1152L60.1488 56.6153Z" fill="#E4D792"/>
<g filter="url(#filter0_f_5422_47506)">
<rect width="86.6371" height="3.08203" transform="matrix(0.998608 -0.0527503 0.0358385 0.999358 6.5127 93.053)" fill="black" fill-opacity="0.1"/>
</g>
<g filter="url(#filter1_f_5422_47506)">
<rect x="6.53027" y="89.8472" width="86.592" height="3.0832" transform="rotate(0.499997 6.53027 89.8472)" fill="black" fill-opacity="0.1"/>
</g>
<rect x="3.96094" y="83.658" width="91.8399" height="9.24959" transform="rotate(0.499997 3.96094 83.658)" fill="#FFF6C8"/>
<defs>
<filter id="filter0_f_5422_47506" x="3.42948" y="85.3997" width="92.7934" height="13.8166" filterUnits="userSpaceOnUse" color-interpolation-filters="sRGB">
<feFlood flood-opacity="0" result="BackgroundImageFix"/>
<feBlend mode="normal" in="SourceGraphic" in2="BackgroundImageFix" result="shape"/>
<feGaussianBlur stdDeviation="1.54161" result="effect1_foregroundBlur_5422_47506"/>
</filter>
<filter id="filter1_f_5422_47506" x="0.336502" y="83.6807" width="98.9491" height="16.1715" filterUnits="userSpaceOnUse" color-interpolation-filters="sRGB">
<feFlood flood-opacity="0" result="BackgroundImageFix"/>
<feBlend mode="normal" in="SourceGraphic" in2="BackgroundImageFix" result="shape"/>
<feGaussianBlur stdDeviation="3.08321" result="effect1_foregroundBlur_5422_47506"/>
</filter>
</defs>
</svg>
