<svg width="100" height="100" viewBox="0 0 100 100" fill="none" xmlns="http://www.w3.org/2000/svg">
<rect width="91.8399" height="82.7312" transform="translate(4.64258 0.929688) rotate(0.499997)" fill="#FFF6C8"/>
<path d="M13.2729 13.205L23.2025 13.2916L23.1633 17.7915L13.2336 17.7048L13.2729 13.205ZM21.8566 13.2799L27.4964 13.3291L27.4571 17.8289L21.8173 17.7797L21.8566 13.2799ZM26.1484 13.3173L31.7882 13.3666L31.7489 17.8664L26.1091 17.8172L26.1484 13.3173ZM30.4402 13.3548L40.3699 13.4415L40.3306 17.9413L30.401 17.8546L30.4402 13.3548ZM39.0239 13.4297L48.9535 13.5164L48.9142 18.0162L38.9846 17.9295L39.0239 13.4297ZM47.6075 13.5046L53.2473 13.5538L53.2081 18.0537L47.5683 18.0044L47.6075 13.5046ZM51.8994 13.5421L57.5392 13.5913L57.4999 18.0911L51.8601 18.0419L51.8994 13.5421ZM56.1912 13.5795L61.831 13.6287L61.7917 18.1286L56.1519 18.0794L56.1912 13.5795ZM13.1507 27.2044L23.0804 27.2911L23.0411 31.7909L13.1115 31.7043L13.1507 27.2044ZM21.7344 27.2794L31.664 27.366L31.6248 31.8658L21.6951 31.7792L21.7344 27.2794ZM30.3181 27.3543L40.2477 27.4409L40.2084 31.9407L30.2788 31.8541L30.3181 27.3543ZM38.9017 27.4292L44.5415 27.4784L44.5022 31.9782L38.8624 31.929L38.9017 27.4292ZM43.1935 27.4666L53.1232 27.5533L53.0839 32.0531L43.1543 31.9665L43.1935 27.4666ZM51.7772 27.5415L61.7068 27.6282L61.6676 32.128L51.7379 32.0414L51.7772 27.5415ZM60.3609 27.6164L66.0006 27.6657L65.9614 32.1655L60.3216 32.1163L60.3609 27.6164ZM64.6527 27.6539L70.2925 27.7031L70.2532 32.2029L64.6134 32.1537L64.6527 27.6539ZM68.9445 27.6914L78.8741 27.778L78.8349 32.2778L68.9052 32.1912L68.9445 27.6914ZM77.5282 27.7663L87.4578 27.8529L87.4185 32.3527L77.4889 32.2661L77.5282 27.7663ZM13.0198 42.2039L18.6596 42.2531L18.6204 46.7529L12.9806 46.7037L13.0198 42.2039ZM17.3117 42.2413L27.2413 42.328L27.202 46.8278L17.2724 46.7412L17.3117 42.2413ZM25.8953 42.3162L35.825 42.4029L35.7857 46.9027L25.8561 46.8161L25.8953 42.3162ZM34.479 42.3911L40.1188 42.4404L40.0795 46.9402L34.4397 46.891L34.479 42.3911ZM38.7708 42.4286L48.7004 42.5153L48.6612 47.0151L38.7315 46.9284L38.7708 42.4286ZM47.3545 42.5035L57.2841 42.5902L57.2448 47.09L47.3152 47.0033L47.3545 42.5035ZM55.9381 42.5784L65.8678 42.6651L65.8285 47.1649L55.8989 47.0782L55.9381 42.5784ZM64.5218 42.6533L74.4514 42.74L74.4121 47.2398L64.4825 47.1532L64.5218 42.6533ZM73.1054 42.7282L78.7452 42.7775L78.706 47.2773L73.0662 47.2281L73.1054 42.7282ZM77.3973 42.7657L87.3269 42.8523L87.2876 47.3522L77.358 47.2655L77.3973 42.7657Z" fill="#E4D792"/>
<g filter="url(#filter0_f_5422_47474)">
<rect width="86.6371" height="3.08203" transform="matrix(0.998608 -0.0527503 0.0358385 0.999358 6.47168 93.053)" fill="black" fill-opacity="0.1"/>
</g>
<g filter="url(#filter1_f_5422_47474)">
<rect x="6.48926" y="89.8472" width="86.592" height="3.0832" transform="rotate(0.499997 6.48926 89.8472)" fill="black" fill-opacity="0.1"/>
</g>
<rect x="3.91992" y="83.658" width="91.8399" height="9.24959" transform="rotate(0.499997 3.91992 83.658)" fill="#FFF6C8"/>
<defs>
<filter id="filter0_f_5422_47474" x="3.38847" y="85.3997" width="92.7934" height="13.8166" filterUnits="userSpaceOnUse" color-interpolation-filters="sRGB">
<feFlood flood-opacity="0" result="BackgroundImageFix"/>
<feBlend mode="normal" in="SourceGraphic" in2="BackgroundImageFix" result="shape"/>
<feGaussianBlur stdDeviation="1.54161" result="effect1_foregroundBlur_5422_47474"/>
</filter>
<filter id="filter1_f_5422_47474" x="0.295486" y="83.6807" width="98.9491" height="16.1715" filterUnits="userSpaceOnUse" color-interpolation-filters="sRGB">
<feFlood flood-opacity="0" result="BackgroundImageFix"/>
<feBlend mode="normal" in="SourceGraphic" in2="BackgroundImageFix" result="shape"/>
<feGaussianBlur stdDeviation="3.08321" result="effect1_foregroundBlur_5422_47474"/>
</filter>
</defs>
</svg>
