<svg width="20" height="69" viewBox="0 0 20 69" fill="none" xmlns="http://www.w3.org/2000/svg">
<path d="M9.48137 7.64907C9.33315 16.604 10.0277 25.7342 10.3117 34.6943C10.4186 38.068 10.9193 70.1559 11.3282 66.8053C11.8437 62.5803 11.5118 36.0404 11.582 31.7983C11.7047 24.3823 11.3273 16.9766 11.4498 9.5708C11.4912 7.07114 11.5326 4.57149 11.574 2.07183C11.6356 -1.64925 13.9004 7.20102 14.0377 7.64114C15.1309 11.1449 15.9172 15.6843 18.1888 18.6836C19.1841 19.9976 16.6862 13.2466 16.5078 12.8216C15.162 9.61492 13.0477 6.9059 11.6575 3.7401C11.4148 3.18754 11.2245 2.14665 10.4612 2.16454C8.74152 2.20483 5.88649 6.85387 5.08481 8.07637C4.03609 9.6756 1.91447 11.6293 1.8831 13.5241" stroke="#39363E" stroke-width="2" stroke-linecap="round"/>
</svg>
